<svg width="501" height="124" viewBox="0 0 501 124" fill="none" xmlns="http://www.w3.org/2000/svg">
<path d="M210.114 120.179V40.1074H209.521L177.493 120.179H165.037L133.009 40.1074H132.415V120.179H117.587V11.6377H136.567L170.968 98.2332H171.561L205.962 11.6377H225.535V120.179H210.114ZM309.165 120.179H293.744V106.537H293.151C288.999 116.027 280.695 121.365 268.833 121.365C251.633 121.365 241.55 110.096 241.55 91.7088V40.7005H257.564V88.7432C257.564 100.606 263.495 107.13 274.171 107.13C286.034 107.13 292.558 98.8263 292.558 86.3708V40.7005H308.572L309.165 120.179ZM353.056 39.5143C371.443 39.5143 382.712 49.5973 383.305 64.4253H368.477C367.291 56.7148 361.953 51.9698 353.056 51.9698C344.159 51.9698 338.228 56.1216 338.228 62.646C338.228 67.3909 341.787 70.9496 350.09 72.729L362.546 75.6946C378.56 79.2533 384.491 85.7776 384.491 97.0469C384.491 111.282 371.443 121.365 353.056 121.365C333.483 121.365 321.621 111.875 320.434 96.4538H336.449C337.635 104.757 343.566 108.909 353.056 108.909C362.546 108.909 368.477 104.757 368.477 98.2332C368.477 92.8951 365.512 89.9295 357.208 88.1501L344.752 85.1845C329.924 81.6258 322.807 74.5084 322.807 62.646C322.807 49.0042 334.669 39.5143 353.056 39.5143ZM396.354 19.9413C396.354 14.6033 400.506 10.4514 405.844 10.4514C411.182 10.4514 415.334 14.6033 415.334 19.9413C415.334 25.2794 411.182 29.4313 405.844 29.4313C400.506 29.4313 396.354 25.2794 396.354 19.9413ZM397.54 40.7005H413.554V120.179H397.54V40.7005ZM481.17 67.984C479.391 59.6804 473.459 52.5629 462.783 52.5629C450.328 52.5629 442.024 63.2391 442.024 79.8464C442.024 97.0469 450.328 107.13 462.783 107.13C472.866 107.13 478.797 101.792 481.17 92.302H496.591C494.812 108.909 481.763 120.772 462.783 120.772C440.245 120.772 426.01 105.351 426.01 79.8464C426.01 54.9354 440.245 38.9212 462.783 38.9212C482.949 38.9212 494.812 51.9698 496.591 67.3909L481.17 67.984ZM68.3586 22.3138C64.2067 27.0588 57.6824 31.2106 51.1581 30.6175C49.9718 23.5001 53.5306 16.3826 57.0893 12.2308C61.2411 6.8927 68.3586 3.33398 74.2898 3.33398C74.8829 9.8583 72.5104 16.9757 68.3586 22.3138ZM74.2898 31.8037C77.8485 31.8037 88.5246 32.99 95.6421 43.6661C95.0489 44.2592 83.1865 51.3767 83.1865 66.2047C83.1865 83.9983 98.6077 89.9295 98.6077 89.9295C98.6077 90.5226 96.2352 98.2332 90.8971 106.537C86.1521 113.654 80.8141 120.772 73.1035 120.772C65.393 120.772 63.0205 116.027 54.1237 116.027C45.2269 116.027 42.2613 120.772 35.1438 120.772C27.4333 120.772 21.5021 113.061 16.7571 105.944C6.6741 91.1157 -1.03646 64.4253 9.6397 46.6317C14.3847 37.7349 23.8746 31.8037 33.3645 31.8037C41.075 31.8037 48.1925 37.1418 52.3443 37.1418C56.4962 37.1418 64.7998 31.2106 74.2898 31.8037Z" fill="white"/>
</svg>
