<svg width="510" height="81" viewBox="0 0 510 81" fill="none" xmlns="http://www.w3.org/2000/svg">
<g clip-path="url(#clip0_320_24)">
<path d="M129.262 24.4018C121.062 24.4018 116.872 30.8566 116.872 40.5803C116.872 49.772 121.402 56.6705 129.262 56.6705C138.151 56.6705 141.483 48.5363 141.483 40.5803C141.477 32.2722 137.289 24.4018 129.26 24.4018M107.472 0.270104H117.213V23.606H117.386C120.035 19.1873 125.589 16.4458 130.546 16.4458C144.472 16.4458 151.226 27.4112 151.226 40.7602C151.226 53.0441 145.245 64.6248 132.168 64.6248C126.186 64.6248 119.777 63.1252 116.871 57.1123H116.702V63.3913H107.471V0.271481L107.472 0.270104Z" fill="white"/>
<path d="M184.999 48.0084C184.999 54.3723 178.333 56.6731 174.06 56.6731C170.641 56.6731 165.085 55.3426 165.085 50.8368C165.085 45.5311 168.846 43.9387 173.035 43.2309C177.306 42.4361 182.007 42.5269 184.999 40.4936V48.0084ZM226.687 16.4458C220.876 16.4458 215.833 19.5394 212.927 24.5814L212.757 24.4018V17.685H203.528V56.6092C197.972 56.6722 197.454 56.6722 197.03 56.6722C195.236 56.6722 194.722 55.6995 194.722 53.224V29.7065C194.722 20.0736 185.665 16.4458 177.031 16.4458C167.289 16.4458 157.635 19.8923 156.953 31.6531H166.693C167.122 26.702 170.965 24.4018 176.434 24.4018C180.365 24.4018 185.578 25.3772 185.578 30.5918C185.578 36.5145 179.34 35.7179 172.332 37.0465C164.129 38.0157 155.328 39.8773 155.328 51.2757C155.328 60.2074 162.505 64.6248 170.451 64.6248C175.665 64.6248 181.902 62.9449 185.75 59.0621C186.516 63.2139 189.339 64.6248 193.269 64.6248C194.892 64.6248 197.968 64.008 213.208 63.4777V63.3876H213.269V36.4288C213.269 29.7079 217.457 24.4032 223.95 24.4032C229.675 24.4032 232.412 27.4989 232.581 34.658V63.3889H242.327V32.0073C242.346 21.754 236.276 16.4472 226.703 16.4472" fill="white"/>
<path d="M270.703 56.6722C279.419 56.6722 283.095 48.4494 283.095 40.4912C283.095 30.4174 278.396 24.4018 270.874 24.4018C261.73 24.4018 258.482 32.8011 258.482 41.0209C258.482 48.8895 262.24 56.6705 270.705 56.6705M292.494 63.3889H283.263V57.2011H283.094C280.531 62.4171 274.973 64.6248 269.42 64.6248C255.493 64.6248 248.74 53.9273 248.74 40.2275C248.74 23.6964 258.227 16.4472 267.885 16.4472C273.437 16.4472 279.588 18.5703 282.58 23.606H282.754V0.272169H292.494V63.3904L292.494 63.3889Z" fill="white"/>
<path d="M331.207 32.9796C330.437 27.4101 326.507 24.4025 321.124 24.4025C316.079 24.4025 308.988 27.1446 308.988 41.024C308.988 48.6275 312.234 56.6731 320.696 56.6731C326.335 56.6731 330.265 52.7789 331.207 46.2366H340.948C339.153 58.0825 332.062 64.6248 320.696 64.6248C306.851 64.6248 299.247 54.461 299.247 41.024C299.247 27.234 306.51 16.4486 321.038 16.4486C331.292 16.4486 340.011 21.7522 340.948 32.98H331.223L331.207 32.9796Z" fill="white"/>
<path d="M374.455 48.0084C374.455 54.3723 367.79 56.6731 363.515 56.6731C360.1 56.6731 354.546 55.3426 354.546 50.8368C354.546 45.5311 358.308 43.9387 362.49 43.2309C366.765 42.4361 371.467 42.5269 374.455 40.4936V48.0084ZM442.311 16.4458C435.901 16.4458 431.715 19.3647 428.468 24.049C426.501 18.8358 421.459 16.4458 416.074 16.4458C409.068 16.4458 405.391 19.5394 402.489 24.049H402.231V17.685H392.996V56.6092C387.442 56.6722 386.926 56.6722 386.496 56.6722C384.704 56.6722 384.192 55.6995 384.192 53.224V29.7065C384.192 20.0736 375.136 16.4458 366.5 16.4458C356.76 16.4458 347.103 19.8923 346.419 31.6531H356.162C356.589 26.702 360.437 24.4018 365.905 24.4018C369.836 24.4018 375.047 25.3772 375.047 30.5918C375.047 36.5145 368.808 35.7179 361.802 37.0465C353.596 38.0157 344.795 39.8773 344.795 51.2757C344.795 60.2074 351.973 64.6248 359.921 64.6248C365.135 64.6248 371.37 62.9449 375.219 59.0621C375.986 63.2139 378.806 64.6248 382.74 64.6248C384.36 64.6248 387.438 64.008 402.54 63.4777V63.3876H402.74V36.2507C402.74 28.6486 407.355 24.4032 412.397 24.4032C418.292 24.4032 420.173 27.7606 420.173 34.042V63.3889H429.913V36.6042C429.913 28.9117 432.733 24.4039 439.316 24.4039C446.92 24.4039 447.346 29.4424 447.346 36.6943V63.3887H457.09V31.8313C457.093 20.6902 451.628 16.4472 442.318 16.4472" fill="white"/>
<path d="M487.688 24.4014C479.485 24.4014 475.296 30.8562 475.296 40.5799C475.296 49.7716 479.826 56.67 487.688 56.67C496.575 56.67 499.911 48.5358 499.911 40.5799C499.911 32.2717 495.715 24.4014 487.688 24.4014ZM465.897 17.6846H475.128V23.8725H475.3C478.034 18.6586 483.33 16.4454 488.971 16.4454C502.9 16.4454 509.651 27.4107 509.651 40.7598C509.651 53.0436 503.67 64.6243 490.598 64.6243C484.957 64.6243 478.887 62.5037 475.812 57.4683H475.64V80.27H465.897V17.6884V17.6846Z" fill="white"/>
<path d="M73.4143 63.2542H0.348877L34.4693 0.270103H107.535L73.4143 63.2542Z" fill="#6399A8"/>
</g>
<defs>
<clipPath id="clip0_320_24">
<rect width="509.302" height="80" fill="white" transform="translate(0.348877 0.269531)"/>
</clipPath>
</defs>
</svg>
