<svg width="501" height="152" viewBox="0 0 501 152" fill="none" xmlns="http://www.w3.org/2000/svg">
<g clip-path="url(#clip0_320_56)">
<path d="M75.6306 1.11377C34.263 1.11377 0.726318 34.6495 0.726318 76.0172C0.726318 117.387 34.263 150.92 75.6306 150.92C117.003 150.92 150.536 117.387 150.536 76.0172C150.536 34.6522 117.003 1.11735 75.6297 1.11735L75.6306 1.11377ZM109.981 109.146C108.64 111.346 105.759 112.044 103.559 110.693C85.9723 99.951 63.8328 97.5181 37.7594 103.475C35.2469 104.048 32.7424 102.473 32.17 99.9599C31.5948 97.4465 33.1628 94.942 35.6816 94.3696C64.2147 87.8508 88.6897 90.6576 108.434 102.724C110.634 104.074 111.332 106.946 109.981 109.146ZM119.149 88.7506C117.459 91.4984 113.863 92.366 111.117 90.6755C90.983 78.2998 60.2916 74.7157 36.4768 81.9447C33.3882 82.8776 30.1261 81.137 29.1888 78.0538C28.2585 74.9653 30 71.7095 33.0832 70.7703C60.2863 62.5163 94.1047 66.5145 117.226 80.7229C119.972 82.4134 120.84 86.0082 119.149 88.7506ZM119.937 67.5127C95.7952 53.1737 55.9651 51.8553 32.9159 58.8508C29.2147 59.9733 25.3006 57.8839 24.1789 54.1826C23.0573 50.4796 25.1449 46.5682 28.8489 45.4429C55.3077 37.4107 99.2925 38.9626 127.087 55.4626C130.423 57.4385 131.514 61.7381 129.538 65.0628C127.57 68.3919 123.259 69.4894 119.94 67.5127H119.937ZM204.516 70.2605C191.582 67.1764 189.284 65.0118 189.284 60.4635C189.284 56.1665 193.326 53.2748 199.346 53.2748C205.178 53.2748 210.956 55.4707 217.021 59.9912C217.199 60.1281 217.432 60.1826 217.656 60.1469C217.888 60.1129 218.085 59.9885 218.219 59.8016L224.534 50.9C224.793 50.5333 224.722 50.0279 224.373 49.7479C217.155 43.9581 209.033 41.1433 199.534 41.1433C185.572 41.1433 175.813 49.5234 175.813 61.5136C175.813 74.3714 184.23 78.9241 198.774 82.4385C211.144 85.2891 213.237 87.6773 213.237 91.9456C213.237 96.6773 209.015 99.62 202.217 99.62C194.668 99.62 188.505 97.0708 181.618 91.1138C181.448 90.9617 181.216 90.8991 181.001 90.9081C180.768 90.9259 180.563 91.0333 180.42 91.2032L173.335 99.629C173.04 99.9868 173.076 100.506 173.416 100.81C181.43 107.965 191.287 111.74 201.931 111.74C216.976 111.74 226.699 103.52 226.699 90.7918C226.725 80.0521 220.294 74.1039 204.543 70.2721L204.516 70.2605ZM260.742 57.5055C254.221 57.5055 248.872 60.0744 244.454 65.3383V59.4134C244.454 58.9456 244.078 58.5646 243.613 58.5646H232.03C231.564 58.5646 231.189 58.9456 231.189 59.4134V125.246C231.189 125.711 231.564 126.096 232.03 126.096H243.613C244.078 126.096 244.454 125.711 244.454 125.246V104.468C248.872 109.414 254.221 111.838 260.742 111.838C272.861 111.838 285.133 102.509 285.133 84.6746C285.151 66.8365 272.879 57.5046 260.75 57.5046L260.742 57.5055ZM271.663 84.6746C271.663 93.7524 266.073 100.094 258.058 100.094C250.142 100.094 244.167 93.4662 244.167 84.6746C244.167 75.8821 250.142 69.256 258.058 69.256C265.938 69.2551 271.663 75.739 271.663 84.6746ZM316.573 57.5055C300.965 57.5055 288.738 69.5234 288.738 84.8687C288.738 100.049 300.885 111.937 316.386 111.937C332.047 111.937 344.31 99.9599 344.31 84.6746C344.31 69.4411 332.128 57.5073 316.573 57.5073V57.5055ZM316.573 100.184C308.273 100.184 302.012 93.5109 302.012 84.6701C302.012 75.7891 308.058 69.3445 316.386 69.3445C324.74 69.3445 331.037 76.0145 331.037 84.8642C331.037 93.7435 324.954 100.184 316.573 100.184ZM377.638 58.5646H364.892V45.536C364.892 45.069 364.516 44.688 364.051 44.688H352.468C352.003 44.688 351.618 45.069 351.618 45.536V58.5646H346.055C345.589 58.5646 345.214 58.9456 345.214 59.4134V69.366C345.214 69.8329 345.589 70.2148 346.055 70.2148H351.618V95.9707C351.618 106.373 356.797 111.65 367.021 111.65C371.171 111.65 374.615 110.792 377.861 108.949C378.13 108.806 378.291 108.52 378.291 108.216V98.7345C378.291 98.4483 378.139 98.171 377.888 98.019C377.638 97.858 377.325 97.849 377.065 97.9832C374.838 99.1013 372.683 99.62 370.267 99.62C366.556 99.62 364.892 97.9295 364.892 94.1549V70.2193H377.638C378.103 70.2193 378.479 69.8383 378.479 69.3705V59.4188C378.496 58.951 378.121 58.5699 377.647 58.5699L377.638 58.5646ZM422.039 58.6156V57.0154C422.039 52.3079 423.845 50.2086 427.888 50.2086C430.303 50.2086 432.244 50.688 434.418 51.4125C434.686 51.4966 434.963 51.4546 435.178 51.2945C435.402 51.1343 435.527 50.8776 435.527 50.6057V40.8472C435.527 40.4742 435.294 40.1442 434.928 40.0342C432.638 39.3517 429.704 38.6513 425.303 38.6513C414.615 38.6513 408.953 44.6746 408.953 56.0637V58.5145H403.389C402.924 58.5145 402.539 58.8955 402.539 59.3624V69.366C402.539 69.8329 402.924 70.2148 403.389 70.2148H408.953V109.933C408.953 110.407 409.337 110.783 409.802 110.783H421.377C421.851 110.783 422.226 110.407 422.226 109.933V70.2175H433.04L449.606 109.933C447.727 114.101 445.876 114.933 443.353 114.933C441.314 114.933 439.158 114.325 436.967 113.117C436.761 113.01 436.511 112.992 436.296 113.055C436.072 113.135 435.885 113.296 435.795 113.511L431.869 122.125C431.681 122.536 431.842 123.01 432.235 123.225C436.332 125.443 440.026 126.391 444.597 126.391C453.148 126.391 457.879 122.402 462.039 111.686L482.128 59.7748C482.235 59.5136 482.2 59.2184 482.039 58.9868C481.886 58.7569 481.627 58.6182 481.35 58.6182H469.293C468.926 58.6182 468.604 58.8481 468.488 59.1871L456.135 94.459L442.611 59.1639C442.486 58.8356 442.173 58.6182 441.824 58.6182H422.039V58.6156ZM396.296 58.5646H384.713C384.248 58.5646 383.863 58.9456 383.863 59.4134V109.933C383.863 110.407 384.248 110.783 384.713 110.783H396.296C396.761 110.783 397.146 110.407 397.146 109.933V59.417C397.146 58.9492 396.77 58.5682 396.296 58.5682V58.5646ZM390.572 35.5601C385.983 35.5601 382.262 39.2739 382.262 43.8615C382.262 48.4519 385.983 52.1701 390.572 52.1701C395.16 52.1701 398.872 48.4519 398.872 43.8615C398.872 39.2748 395.151 35.5601 390.572 35.5601Z" fill="#1ED760"/>
</g>
<defs>
<clipPath id="clip0_320_56">
<rect width="500" height="150.268" fill="white" transform="translate(0.5 0.865723)"/>
</clipPath>
</defs>
</svg>
