<svg width="500" height="94" viewBox="0 0 500 94" fill="none" xmlns="http://www.w3.org/2000/svg">
<g clip-path="url(#clip0_320_34)">
<path d="M46.468 93.936C72.1316 93.936 92.936 73.1316 92.936 47.468C92.936 21.8044 72.1316 1 46.468 1C20.8044 1 0 21.8044 0 47.468C0 73.1316 20.8044 93.936 46.468 93.936Z" fill="#FF0000"/>
<path d="M46.4688 19.0479C30.7728 19.0479 18.0488 31.7718 18.0488 47.4678C18.0488 63.1638 30.7728 75.8878 46.4688 75.8878C62.1648 75.8878 74.8888 63.1638 74.8888 47.4678C74.8888 31.7718 62.1648 19.0479 46.4688 19.0479ZM46.4688 72.1078C32.8608 72.1078 21.8288 61.0758 21.8288 47.4678C21.8288 33.8598 32.8608 22.8279 46.4688 22.8279C60.0768 22.8279 71.1088 33.8598 71.1088 47.4678C71.1088 61.0758 60.0768 72.1078 46.4688 72.1078Z" fill="white"/>
<path d="M37.793 61.0677V33.7197L61.561 47.3357L37.793 61.0677Z" fill="white"/>
<path d="M126.012 15.9717L119.244 48.0797L112.38 15.9717H102.068L113.904 59.1077V80.1917H124.308V59.2917L136.416 15.9717H126.012Z" fill="white"/>
<path d="M148.656 32.1758C142.464 32.1758 133.74 34.0398 133.74 51.9438C133.74 51.9438 133.74 56.7158 133.74 59.6278C133.74 70.0718 135.008 80.6638 148.136 80.6638C161.264 80.6638 163.052 71.7878 163.052 59.1838V54.0358C163.052 44.4838 162.456 32.1758 148.656 32.1758ZM152.364 65.4438C152.364 70.2678 151.568 73.6998 148.4 73.6998C145.228 73.6998 144.508 69.5718 144.508 65.4958C144.508 61.4198 144.508 54.9038 144.508 48.0838C144.508 41.2638 146.396 39.4398 148.4 39.4398C152.24 39.4398 152.364 44.7598 152.364 47.5958C152.364 50.4278 152.364 60.6198 152.364 65.4438Z" fill="white"/>
<path d="M186.548 70.3676C186.548 70.3676 185.428 73.3996 182.048 73.3996C179.712 73.3996 179.016 71.1635 179.016 68.0275C179.016 64.8955 179.092 33.1436 179.092 33.1436H168.5C168.5 33.1436 168.5 60.2195 168.5 67.0835C168.5 73.9475 169.468 80.6596 177.524 80.6596C185.58 80.6596 187.892 74.0196 187.892 74.0196L188.936 80.1876H197.068V33.1476H186.552L186.548 70.3676Z" fill="white"/>
<path d="M240.7 70.3676C240.7 70.3676 239.58 73.3996 236.2 73.3996C233.864 73.3996 233.168 71.1635 233.168 68.0275C233.168 64.8955 233.244 33.1436 233.244 33.1436H222.652C222.652 33.1436 222.652 60.2195 222.652 67.0835C222.652 73.9475 223.62 80.6596 231.676 80.6596C239.732 80.6596 242.044 74.0196 242.044 74.0196L243.088 80.1876H251.22V33.1476H240.704L240.7 70.3676Z" fill="white"/>
<path d="M406.888 70.3676C406.888 70.3676 405.768 73.3996 402.388 73.3996C400.052 73.3996 399.428 71.1635 399.428 68.0275C399.428 64.8955 399.428 33.1436 399.428 33.1436H388.836C388.836 33.1436 388.836 60.2195 388.836 67.0835C388.836 73.9475 389.804 80.6596 397.86 80.6596C405.916 80.6596 408.228 74.0196 408.228 74.0196L409.272 80.1876H417.404V33.1476H406.888V70.3676Z" fill="white"/>
<path d="M225.785 15.9717H194.533V24.3437H204.901V80.1917H215.341V24.3437H225.785V15.9717Z" fill="white"/>
<path d="M277.472 32.2517C272.88 32.2517 269.508 35.1677 267.628 38.7197V13.4277H257.484V80.1877H266.336L267.492 75.3997C267.492 75.3997 270.312 80.6557 276.652 80.6557C282.992 80.6557 287.168 75.5837 287.168 61.7117C287.168 61.7117 287.428 51.5317 287.168 51.2677C287.172 41.7237 285.976 32.2517 277.472 32.2517ZM276.58 61.6157C276.58 71.8597 274.344 73.2517 271.904 73.2517C269.468 73.2517 267.828 70.9157 267.828 70.9157V44.0637C268.076 42.3717 270.412 39.6877 272.388 39.6877C276.1 39.6877 276.58 44.4117 276.58 51.3717C276.58 52.9117 276.58 55.4997 276.58 61.6157Z" fill="white"/>
<path d="M306.065 32.1758C300.141 32.1758 291.789 34.0398 291.789 51.9438C291.789 51.9438 291.789 56.7158 291.789 59.6278C291.789 70.0718 293.001 80.6638 305.565 80.6638C315.597 80.6638 319.841 75.8918 319.557 66.3078C319.549 66.0718 310.293 65.5958 310.293 65.5958C310.285 70.3278 309.901 73.6998 306.193 73.6998C302.437 73.6998 302.093 69.5718 302.093 65.4958C302.093 63.9998 302.093 62.1718 302.093 60.1238H319.825L319.841 53.9558C319.845 44.4198 320.269 32.1758 306.065 32.1758ZM302.093 53.9558C302.093 52.0598 302.093 50.0838 302.093 48.0798C302.093 41.2598 303.233 39.3838 305.957 39.3838C310.433 39.3838 309.893 44.7558 309.893 47.5878C309.893 48.7558 309.961 51.1758 310.041 53.9518L302.093 53.9558Z" fill="white"/>
<path d="M490.851 62.6596C491.099 70.3676 489.759 73.6996 486.839 73.6996C483.919 73.6996 483.095 70.9156 483.095 65.5956C483.095 63.7076 483.095 55.5516 483.095 48.2916C483.095 41.0316 484.539 39.3916 486.675 39.3916C490.107 39.3916 490.555 43.4196 490.555 47.3436C490.555 48.4316 490.555 50.9316 490.555 50.9316L499.655 50.2836C500.599 36.1116 495.627 32.1836 486.715 32.1836C480.791 32.1836 472.439 34.0476 472.439 51.9516C472.439 51.9516 472.439 56.7236 472.439 59.6356C472.439 70.0796 473.651 80.6716 486.215 80.6716C499.475 80.6716 500.003 72.3676 500.003 63.2156L490.851 62.6596Z" fill="white"/>
<path d="M363.376 34.3877C362.192 40.3957 359.24 55.6677 358.252 66.0117H357.464C357.268 56.9477 348.78 15.9717 348.78 15.9717H333.848V80.1917H343.08V27.1957L353.328 80.1917H362.492L372.74 27.4917V80.1917H382V15.9717H367.22C367.22 15.9717 364.556 28.3757 363.376 34.3877Z" fill="white"/>
<path d="M439.585 52.864C434.761 49.084 432.425 47.644 432.425 43.564C432.425 41.228 433.825 39.684 436.681 39.684C439.189 39.684 440.709 41.096 440.697 48.696L449.545 48.34C449.545 48.34 449.597 44.556 449.189 41.332C448.781 38.112 446.685 32.332 436.713 32.332C430.013 32.332 423.313 34.684 423.313 44.808C423.313 52.12 427.045 55.6 434.053 61.12C439.729 65.416 441.085 67.28 441.085 69.568C441.085 71.856 439.993 73.844 436.809 73.844C433.625 73.844 431.937 70.564 432.285 65.64L423.317 65.688C423.317 65.688 422.889 71.456 424.081 74.488C425.273 77.52 427.929 81.004 436.397 81.004C444.865 81.004 450.137 77.372 450.137 68.524C450.125 59.676 444.405 56.644 439.585 52.864Z" fill="white"/>
<path d="M465.889 33.1475H455.893V79.9155H465.889V33.1475Z" fill="white"/>
<path d="M462.236 14.6514H460.056C457.536 14.6514 455.492 16.6954 455.492 19.2154V22.9954C455.492 25.5154 457.536 27.5594 460.056 27.5594H462.236C464.756 27.5594 466.8 25.5154 466.8 22.9954V19.2154C466.796 16.6954 464.756 14.6514 462.236 14.6514Z" fill="white"/>
</g>
<defs>
<clipPath id="clip0_320_34">
<rect width="500" height="94" fill="white"/>
</clipPath>
</defs>
</svg>
